<?xml version="1.0" standalone="no"?>
<!DOCTYPE svg PUBLIC "-//W3C//DTD SVG 20010904//EN"
 "http://www.w3.org/TR/2001/REC-SVG-20010904/DTD/svg10.dtd">
<svg version="1.0" xmlns="http://www.w3.org/2000/svg"
 width="225.000000pt" height="225.000000pt" viewBox="0 0 225.000000 225.000000"
 preserveAspectRatio="xMidYMid meet">

<g transform="translate(0.000000,225.000000) scale(0.100000,-0.100000)"
fill="#000000" stroke="none">
<path d="M994 2146 c-23 -7 -47 -17 -54 -21 -8 -5 -38 -10 -68 -11 -71 -4
-140 -27 -191 -64 -22 -16 -56 -36 -76 -44 -81 -34 -212 -191 -256 -307 l-20
-52 41 37 c53 48 97 66 158 66 35 0 54 5 66 19 36 39 116 65 207 67 48 1 95 6
105 12 43 23 132 42 195 42 64 0 192 -31 203 -49 3 -4 29 -6 59 -3 77 6 159
-14 218 -54 39 -26 61 -34 95 -34 57 0 102 -19 153 -65 23 -21 41 -35 41 -31
0 17 -53 122 -88 173 -48 71 -140 159 -185 178 -18 7 -57 29 -86 49 -59 40
-105 55 -183 60 -29 2 -71 12 -93 21 -52 23 -186 30 -241 11z"/>
<path d="M936 1568 c-27 -57 -50 -109 -53 -115 -3 -8 4 -13 19 -13 20 0 32 17
81 115 l57 115 -29 0 c-26 0 -32 -8 -75 -102z"/>
<path d="M1068 1620 c-39 -70 -37 -170 3 -170 17 0 19 8 19 68 l1 67 28 -33
28 -33 26 33 26 33 1 -67 c0 -66 1 -68 25 -68 l25 0 0 110 c0 109 0 110 -24
110 -16 0 -34 -13 -53 -36 l-30 -37 -22 37 c-12 20 -23 36 -24 36 -1 0 -14
-23 -29 -50z"/>
<path d="M778 1638 l-48 -10 0 -110 c0 -110 0 -110 23 -104 12 3 30 6 39 6 18
0 48 26 48 42 0 6 -12 7 -30 3 -27 -6 -30 -4 -30 19 0 21 6 26 42 33 30 6 44
14 46 27 4 17 -1 18 -42 13 -44 -6 -46 -5 -46 17 0 21 7 25 47 32 33 6 49 15
51 27 4 20 -22 21 -100 5z"/>
<path d="M1336 1558 c-21 -51 -41 -99 -43 -105 -3 -8 4 -13 20 -13 17 0 28 7
32 20 11 34 81 22 96 -17 9 -23 35 -41 45 -30 7 7 -54 207 -68 225 -26 30 -45
12 -82 -80z m79 -26 c6 -22 5 -23 -17 -17 -31 10 -30 9 -17 39 13 28 20 24 34
-22z"/>
<path d="M1565 1560 c32 -62 31 -67 -5 -117 -16 -22 -27 -43 -23 -47 14 -14
43 -5 62 21 24 29 23 30 41 -15 12 -30 44 -62 62 -62 4 0 -6 30 -23 66 l-29
67 35 43 36 43 -27 7 c-22 6 -32 2 -50 -21 l-22 -27 -12 36 c-11 34 -34 56
-60 56 -5 0 1 -22 15 -50z"/>
<path d="M542 1573 l-44 -15 7 -107 c4 -58 9 -107 10 -109 2 -2 12 1 22 7 15
7 18 18 15 44 -5 48 20 56 51 16 19 -25 28 -29 51 -23 l27 6 -27 35 c-23 31
-24 36 -11 51 22 26 29 56 18 86 -9 21 -17 26 -43 25 -18 0 -53 -7 -76 -16z
m76 -50 c3 -21 -30 -53 -55 -53 -21 0 -17 68 5 73 31 9 47 2 50 -20z"/>
<path d="M1913 1405 c0 -33 2 -45 4 -27 2 18 2 45 0 60 -2 15 -4 0 -4 -33z"/>
<path d="M1900 1311 c0 -27 -48 -231 -56 -240 -2 -3 -14 5 -27 16 -32 30 -79
51 -138 64 -29 6 -72 24 -96 40 -50 31 -120 49 -192 49 -26 0 -74 9 -107 21
-92 32 -239 36 -334 9 -41 -12 -114 -25 -161 -30 -85 -8 -177 -39 -200 -66 -6
-7 -32 -16 -57 -20 -53 -8 -128 -42 -154 -71 -17 -18 -16 -22 27 -97 71 -125
199 -277 449 -533 104 -107 148 -145 175 -153 52 -14 158 -12 189 4 55 28 378
375 514 551 86 111 112 160 143 277 25 94 42 208 31 208 -3 0 -6 -13 -6 -29z
m-580 -894 c0 -1 -24 -25 -52 -52 l-53 -50 50 53 c46 48 55 57 55 49z"/>
<path d="M1029 161 c14 -55 18 -60 49 -66 18 -3 39 -8 46 -11 7 -3 25 7 40 21
23 21 26 31 21 56 -4 18 -2 36 5 44 11 13 0 15 -82 15 l-95 0 16 -59z"/>
<path d="M1290 158 c0 -25 3 -29 10 -18 9 13 11 13 20 0 7 -11 10 -7 10 18 0
25 -4 32 -20 32 -16 0 -20 -7 -20 -32z m30 12 c0 -5 -4 -10 -10 -10 -5 0 -10
5 -10 10 0 6 5 10 10 10 6 0 10 -4 10 -10z"/>
<path d="M1250 141 c0 -10 39 -46 43 -40 2 2 -7 14 -20 26 -13 12 -23 19 -23
14z"/>
</g>
</svg>
